HIERARCHY
ROOT Hips
{
    OFFSET 0.0 0.0 0.0
    CHANNELS 6 Xposition Yposition Zposition Zrotation Xrotation Yrotation
    JOINT LeftHipJoint
    {
        OFFSET 0.1 0.0 0.0
        CHANNELS 3 Zrotation Xrotation Yrotation
        JOINT LeftUpLeg
        {
            OFFSET 0.09394044704138166 0.0 0.0
            CHANNELS 3 Zrotation Xrotation Yrotation
            JOINT LeftLeg
            {
                OFFSET 0.0 0.0 -0.304134613631626
                CHANNELS 3 Zrotation Xrotation Yrotation
                JOINT LeftFoot
                {
                    OFFSET 0.0 0.0 -0.27803747050509264
                    CHANNELS 3 Zrotation Xrotation Yrotation
                    End Site
                    {
                        OFFSET 0.0 -0.1 0.0
                    }
                }
            }
        }
    }
    JOINT LowerBack
    {
        OFFSET 0.0 0.0 0.1
        CHANNELS 3 Zrotation Xrotation Yrotation
        JOINT Spine
        {
            OFFSET 0.0 0.0 0.23670404012399215
            CHANNELS 3 Zrotation Xrotation Yrotation
            JOINT Spine1
            {
                OFFSET 0.0 0.0 0.24676711019761527
                CHANNELS 3 Zrotation Xrotation Yrotation
                JOINT LeftShoulder
                {
                    OFFSET 0.1 0.0 0.0
                    CHANNELS 3 Zrotation Xrotation Yrotation
                    JOINT LeftArm
                    {
                        OFFSET 0.15704070108345217 0.0 0.0
                        CHANNELS 3 Zrotation Xrotation Yrotation
                        JOINT LeftForeArm
                        {
                            OFFSET 0.23869040571543795 0.0 0.0
                            CHANNELS 3 Zrotation Xrotation Yrotation
                            JOINT LeftHand
                            {
                                OFFSET 0.21194048154176365 0.0 0.0
                                CHANNELS 3 Zrotation Xrotation Yrotation
                                End Site
                                {
                                    OFFSET 0.1 0.0 0.0
                                }
                            }
                        }
                    }
                }
                JOINT Neck
                {
                    OFFSET 0.0 0.0 0.1
                    CHANNELS 3 Zrotation Xrotation Yrotation
                    JOINT Neck1
                    {
                        OFFSET 0.0 0.0 0.13452051719706745
                        CHANNELS 3 Zrotation Xrotation Yrotation
                        End Site
                        {
                            OFFSET 0.0 0.0 0.14057997901502708
                        }
                    }
                }
                JOINT RightShoulder
                {
                    OFFSET -0.1 0.0 0.0
                    CHANNELS 3 Zrotation Xrotation Yrotation
                    JOINT RightArm
                    {
                        OFFSET -0.15704070108345217 0.0 0.0
                        CHANNELS 3 Zrotation Xrotation Yrotation
                        JOINT RightForeArm
                        {
                            OFFSET -0.23869040571543795 0.0 0.0
                            CHANNELS 3 Zrotation Xrotation Yrotation
                            JOINT RightHand
                            {
                                OFFSET -0.21194048154176365 0.0 0.0
                                CHANNELS 3 Zrotation Xrotation Yrotation
                                End Site
                                {
                                    OFFSET -0.1 0.0 0.0
                                }
                            }
                        }
                    }
                }
            }
        }
    }
    JOINT RightHipJoint
    {
        OFFSET -0.1 0.0 0.0
        CHANNELS 3 Zrotation Xrotation Yrotation
        JOINT RightUpLeg
        {
            OFFSET -0.09394044704138166 0.0 0.0
            CHANNELS 3 Zrotation Xrotation Yrotation
            JOINT RightLeg
            {
                OFFSET 0.0 0.0 -0.304134613631626
                CHANNELS 3 Zrotation Xrotation Yrotation
                JOINT RightFoot
                {
                    OFFSET 0.0 0.0 -0.27803747050509264
                    CHANNELS 3 Zrotation Xrotation Yrotation
                    End Site
                    {
                        OFFSET 0.0 -0.1 0.0
                    }
                }
            }
        }
    }
}
MOTION
Frames: 5
Frame Time: 0.03333333333333333
-0.05885614827275276 -0.06440580636262894 -7.887436460849776e-18 60.74620123723348 -74.61779113696694 59.59212808146133 0.0 0.0 0.0 6.206048893158154 10.25221350245423 -1.3749789678285431 -0.8419860500454112 7.124521166778129 0.184071704105449 1.5902773407317588e-15 -1.1034765745125397e-32 -7.951386703658794e-16 0.0 0.0 0.0 -0.11178683276790102 3.0666137596534133 -2.466250075468224 -10.633080088490871 1.6699753495845165e-14 7.554776218827608e-16 0.0 0.0 0.0 -45.90710508616164 14.396605382066474 91.78978091187733 -21.14060938634789 1.3673223662304544e-14 -3.919377031644819e-15 0.0 0.0 -3.1805546814635168e-15 0.0 0.0 0.0 -2.38194601599832 6.40743372475404 1.3062455412659408 0.0 0.0 0.0 50.633285123781135 17.28009433091553 -88.19377631897562 18.398506197535202 -5.084699319485215e-16 -3.1396474977429803e-15 0.0 0.0 -1.5902773407317584e-15 0.0 0.0 0.0 -6.710877211732389 13.795214180563738 -5.629689448392754 -0.17851959532283576 2.2339864565697294 4.049138314707466 0.0 0.0 0.0
-0.05838900804519653 -0.06592298299074173 -0.0012442973675206384 60.54314474243591 -74.83198738685768 59.33770192650883 1.5902773407317584e-15 0.0 0.0 5.725041193335932 10.414357781266379 -1.1455492248813406 -0.8200435117870104 7.233949255170423 -0.05887872782229701 1.5902773407317582e-15 6.361109362927033e-15 -8.827812596100317e-32 1.5902773407317584e-15 0.0 0.0 -0.11667691630412494 3.1738956091186634 -2.325040366101493 -10.463931116619834 -5.0265982111756335e-15 -2.057214670009502e-15 2.2069531490250793e-32 6.361109362927033e-15 -3.9756933518293955e-16 -45.848200786044984 14.3775872660227 91.67494544329026 -20.961642826617968 -3.706053059804444e-15 2.5489266135911205e-15 0.0 0.0 0.0 2.2069531490250793e-32 6.361109362927033e-15 -3.9756933518293955e-16 -2.5860736212288917 6.407769319051604 1.1458320815896477 2.2069531490250793e-32 6.361109362927033e-15 -3.9756933518293955e-16 50.68299472080845 17.139554844432837 -88.29372930539314 18.417692557746786 -1.3830738287452775e-14 -5.812923381877795e-15 6.3611093629270335e-15 -1.7655625192200634e-31 -3.1805546814635168e-15 1.5902773407317584e-15 0.0 0.0 -6.2472437171694 14.02053819860032 -5.677123200589809 -0.12909816947546043 1.5671689565479432 4.1646878237294445 0.0 0.0 0.0
-0.057912178337574005 -0.06760106235742569 -0.0011706962250173174 60.93454753406293 -75.11759177732594 59.70219483312355 0.0 0.0 0.0 5.826453760183362 10.68199151658839 -1.0747531506783095 -0.8247089555544659 7.361198225511617 -0.24078165863241222 3.1805546814635176e-15 6.361109362927035e-15 -7.951386703658796e-16 0.0 0.0 0.0 -0.12350949076336147 3.413316142408387 -2.217412679930475 -10.359444836278447 -1.0099073186438778e-14 -1.7138830066907265e-15 0.0 6.361109362927032e-15 0.0 -45.79331047638245 14.406496122178572 91.62449639371768 -20.777721282815946 3.988728615160246e-15 -4.119078816966869e-15 -6.3611093629270335e-15 -1.7655625192200634e-31 3.1805546814635168e-15 0.0 6.361109362927032e-15 0.0 -2.7277105423130084 6.446782923663997 1.0005796402071598 0.0 6.361109362927032e-15 0.0 50.81083712890162 17.035278562241075 -88.44976829284137 18.380319886308428 2.53985823102953e-16 1.569864077590028e-15 0.0 0.0 0.0 0.0 0.0 0.0 -6.356872287316723 14.383931789280654 -5.595275707751257 -0.08261218735449019 1.0355749554854894 4.278351011657066 0.0 0.0 0.0
-0.057343654334545135 -0.06938008964061737 -0.001027818070724615 61.346396570482035 -75.34620425533731 60.07232274166965 0.0 0.0 0.0 5.921374180127338 10.886030344279297 -0.9674827532090752 -0.8484714751460533 7.586295202850333 -0.42024135172632326 1.5902773407317584e-15 0.0 0.0 0.0 0.0 0.0 -0.13278496854961533 3.63774875047056 -2.110366923859485 -10.27450647612988 1.4859812903487284e-14 9.367694306723132e-16 -3.975693351829395e-16 6.361109362927032e-15 2.2069531490250793e-32 -45.82856225855866 14.40573130649268 91.58040851392467 -20.5465691832864 8.254232850344789e-15 7.960823143081523e-15 -1.7655625192200634e-31 -3.1805546814635168e-15 -6.3611093629270335e-15 -3.975693351829395e-16 6.361109362927032e-15 2.2069531490250793e-32 -2.8598773515600144 6.455296214795634 0.8733005804107614 -3.975693351829395e-16 6.361109362927032e-15 2.2069531490250793e-32 50.7845625599855 16.92209019904232 -88.53782427337521 18.279779639198196 -5.775128541830201e-15 4.1506060683032325e-15 0.0 0.0 0.0 0.0 0.0 0.0 -6.477844486801482 14.653699134405388 -5.50355238493083 -0.05266389473784793 0.6835252955841238 4.395067944420561 -7.951386703658792e-16 6.385957446375967e-15 4.431148119526917e-32
-0.056812070310115814 -0.07096133381128311 -0.0009934012778103438 61.50967384039775 -75.57788116068623 60.20464843013748 0.0 0.0 0.0 5.961915845670901 11.024403187919678 -0.8519012471778479 -0.8668659096805069 7.8450665874686605 -0.5614116191257482 0.0 0.0 0.0 0.0 0.0 0.0 -0.13749876700605243 3.80974386699152 -2.0159272948769016 -10.227139875927813 -3.026154289721232e-15 -1.8674314758582595e-15 0.0 0.0 0.0 -45.8836305015824 14.440590385695126 91.56669193692588 -20.335094205143662 4.0153945941532074e-15 1.3645335022960596e-14 -6.3611093629270335e-15 0.0 0.0 0.0 0.0 0.0 -2.9271089834681585 6.456626004682598 0.7965134945784227 0.0 0.0 0.0 50.729582508222066 16.868388510843122 -88.57136825120402 18.18973349729948 -1.4824645200659605e-14 -1.2121562920641329e-14 0.0 0.0 0.0 0.0 0.0 0.0 -6.520309208872434 14.826288706004432 -5.423877792438903 -0.030885533547461198 0.4168880681369566 4.5161964353012785 7.951386703658794e-16 6.361109362927035e-15 -4.4139062980501586e-32
